<svg width="170" height="234" viewBox="0 0 170 234" fill="none" xmlns="http://www.w3.org/2000/svg">
<path opacity="0.8" d="M154 0C162.837 0 170 7.16344 170 16V164.974C170 171.231 170 174.36 169.301 176.934C167.467 183.687 162.237 188.991 155.51 190.919C152.946 191.653 149.817 191.697 143.561 191.784C134.898 191.904 127.904 198.898 127.784 207.561C127.697 213.816 127.654 216.944 126.919 219.508C124.992 226.236 119.688 231.467 112.934 233.301C110.36 234 107.232 234 100.975 234H16C7.16344 234 4.26848e-07 226.837 0 218V16C0 7.16344 7.16344 3.38898e-07 16 0H154Z" fill="white"/>
<path d="M155.25 223L159 219.25L155.25 215.5M159 219.25H150C149.204 219.25 148.441 218.934 147.879 218.371C147.316 217.809 147 217.046 147 216.25V211" stroke="white" stroke-width="2" stroke-linecap="round" stroke-linejoin="round"/>
</svg>
